<?xml version="1.0" encoding="UTF-8" standalone="no"?>
<svg
   xmlns:dc="http://purl.org/dc/elements/1.1/"
   xmlns:cc="http://creativecommons.org/ns#"
   xmlns:rdf="http://www.w3.org/1999/02/22-rdf-syntax-ns#"
   xmlns:svg="http://www.w3.org/2000/svg"
   xmlns="http://www.w3.org/2000/svg"
   xmlns:sodipodi="http://sodipodi.sourceforge.net/DTD/sodipodi-0.dtd"
   xmlns:inkscape="http://www.inkscape.org/namespaces/inkscape"
   inkscape:version="1.0 (6e3e5246a0, 2020-05-07)"
   inkscape:export-ydpi="21.360001"
   inkscape:export-xdpi="21.360001"
   inkscape:export-filename="apache.png"
   height="400"
   width="900"
   sodipodi:docname="apache.svg"
   xml:space="preserve"
   enable-background="new 0 0 939 459"
   viewBox="0 0 900 400"
   y="0px"
   x="0px"
   id="Layer_1"
   version="1.1"><metadata
   id="metadata915"><rdf:RDF><cc:Work
       rdf:about=""><dc:format>image/svg+xml</dc:format><dc:type
         rdf:resource="http://purl.org/dc/dcmitype/StillImage" /><dc:title></dc:title></cc:Work></rdf:RDF></metadata><defs
   id="defs913" /><sodipodi:namedview
   inkscape:current-layer="Layer_1"
   inkscape:window-maximized="1"
   inkscape:window-y="25"
   inkscape:window-x="56"
   inkscape:cy="229.5"
   inkscape:cx="469.5"
   inkscape:zoom="0.70074547"
   showgrid="false"
   id="namedview911"
   inkscape:window-height="1108"
   inkscape:window-width="1864"
   inkscape:pageshadow="2"
   inkscape:pageopacity="0"
   guidetolerance="10"
   gridtolerance="10"
   objecttolerance="10"
   borderopacity="1"
   bordercolor="#666666"
   pagecolor="#ffffff" />
<g
   transform="matrix(1.0699318,0,0,1.0699318,-29.423746,-39.077896)"
   id="g500">
	<path
   id="path494"
   d="m 259.7,117.6 v 18.3 h -2.4 v -18.3 h -6.7 v -2.3 h 15.8 v 2.3 z"
   fill="#6d6e71" />
	<path
   id="path496"
   d="m 292.6,135.9 v -9.1 h -12.4 v 9.1 h -2.4 v -20.6 h 2.4 v 9.3 h 12.4 v -9.3 h 2.4 v 20.6 z"
   fill="#6d6e71" />
	<path
   id="path498"
   d="m 311.4,117.6 v 6.8 h 10.4 v 2.3 h -10.4 v 7.1 h 12 V 136 H 309 v -20.6 h 14 v 2.3 h -11.6 z"
   fill="#6d6e71" />
</g>
<g
   transform="matrix(1.0699318,0,0,1.0699318,-29.423746,-39.077896)"
   id="g516">
	<g
   id="g514">
		<path
   id="path502"
   d="m 232.6,277.3 49.3,-117.8 h 9.5 l 49.3,117.8 H 328.3 L 313,240.5 h -53 l -15.1,36.8 z m 54.1,-104.2 -24.2,58.2 h 47.8 z"
   fill="#d22128" />
		<path
   id="path504"
   d="M 353.3,277.3 V 159.5 h 48.8 c 20.2,0 34.8,18.7 34.8,37 0,19.2 -13.6,37.3 -33.8,37.3 h -38.3 v 43.5 z m 11.5,-53.8 h 37.7 c 13.9,0 22.9,-12.8 22.9,-27 0,-14.8 -10.9,-26.7 -23.9,-26.7 h -36.7 z"
   fill="#d22128" />
		<path
   id="path506"
   d="m 430.5,277.3 49.3,-117.8 h 9.5 l 49.3,117.8 H 526 l -15.3,-36.8 h -52.9 l -15.1,36.8 z m 54.1,-104.2 -24.2,58.2 h 47.8 z"
   fill="#d22128" />
		<path
   id="path508"
   d="m 594.2,158.8 c 20.9,0 36.2,10.6 43.5,25.7 l -9.3,5.6 c -7.5,-15.6 -22.1,-20.9 -34.8,-20.9 -28.2,0 -43.6,25.2 -43.6,48.9 0,26 19.1,49.6 44.1,49.6 13.3,0 28.9,-6.6 36.3,-21.9 l 9.6,5 c -7.6,17.6 -28.5,27.4 -46.6,27.4 -32.3,0 -55.1,-30.9 -55.1,-60.7 0,-28.3 20.4,-58.7 55.9,-58.7 z"
   fill="#d22128" />
		<path
   id="path510"
   d="m 749.1,159.5 v 117.8 h -11.6 v -55.1 h -69.8 v 55.1 H 656.3 V 159.5 h 11.4 v 52.4 h 69.8 v -52.4 z"
   fill="#d22128" />
		<path
   id="path512"
   d="m 854.8,267 v 10.3 H 775.7 V 159.5 h 77.6 v 10.3 h -66.2 v 42.5 h 57.7 v 9.8 H 787.1 V 267 Z"
   fill="#d22128" />
	</g>
</g>
<g
   transform="matrix(1.0699318,0,0,1.0699318,-29.423746,-39.077896)"
   id="g554">
	<path
   id="path518"
   d="m 243.6,302.2 c 1.4,0.4 2.6,1 3.7,1.7 l -1.2,2.7 c -1.1,-0.7 -2.2,-1.2 -3.4,-1.6 -1.2,-0.3 -2.4,-0.5 -3.4,-0.5 -1.6,0 -2.9,0.3 -3.8,0.9 -1,0.6 -1.4,1.4 -1.4,2.4 0,0.9 0.3,1.6 0.8,2.2 0.5,0.6 1.2,1 2,1.4 0.8,0.3 1.9,0.7 3.3,1.1 1.7,0.5 3.1,1.1 4.1,1.5 1,0.5 1.9,1.2 2.7,2.1 0.7,0.9 1.1,2.1 1.1,3.7 0,1.4 -0.4,2.6 -1.1,3.6 -0.7,1 -1.8,1.8 -3.2,2.4 -1.4,0.6 -2.9,0.9 -4.7,0.9 -1.8,0 -3.5,-0.3 -5.2,-1 -1.7,-0.7 -3.1,-1.6 -4.3,-2.8 l 1.3,-2.5 c 1.1,1.1 2.4,2 3.9,2.6 1.5,0.6 2.9,0.9 4.3,0.9 1.8,0 3.2,-0.3 4.3,-1 1,-0.7 1.6,-1.6 1.6,-2.8 0,-0.9 -0.3,-1.7 -0.8,-2.3 -0.5,-0.6 -1.2,-1.1 -2,-1.4 -0.8,-0.3 -1.9,-0.7 -3.3,-1.1 -1.7,-0.5 -3,-1 -4.1,-1.4 -1,-0.5 -1.9,-1.1 -2.7,-2.1 -0.7,-0.9 -1.1,-2.1 -1.1,-3.6 0,-1.3 0.4,-2.4 1.1,-3.4 0.7,-1 1.7,-1.7 3,-2.3 1.3,-0.5 2.8,-0.8 4.5,-0.8 1.2,-0.1 2.6,0.1 4,0.5 z"
   fill="#6d6e71" />
	<path
   id="path520"
   d="m 280.5,303.3 c 2,1.1 3.6,2.6 4.7,4.5 1.2,1.9 1.7,4 1.7,6.3 0,2.3 -0.6,4.4 -1.7,6.3 -1.2,1.9 -2.7,3.4 -4.7,4.6 -2,1.1 -4.2,1.7 -6.5,1.7 -2.4,0 -4.6,-0.6 -6.6,-1.7 -2,-1.1 -3.6,-2.6 -4.7,-4.6 -1.2,-1.9 -1.7,-4 -1.7,-6.3 0,-2.3 0.6,-4.4 1.7,-6.3 1.2,-1.9 2.7,-3.4 4.7,-4.5 2,-1.1 4.2,-1.7 6.6,-1.7 2.3,0 4.5,0.6 6.5,1.7 z m -11.6,2.3 c -1.5,0.9 -2.8,2.1 -3.7,3.6 -0.9,1.5 -1.4,3.1 -1.4,4.9 0,1.8 0.5,3.5 1.4,5 0.9,1.5 2.2,2.7 3.7,3.6 1.5,0.9 3.2,1.3 5.1,1.3 1.8,0 3.5,-0.4 5,-1.3 1.5,-0.9 2.8,-2.1 3.7,-3.6 0.9,-1.5 1.4,-3.2 1.4,-5 0,-1.8 -0.5,-3.4 -1.4,-4.9 -0.9,-1.5 -2.1,-2.7 -3.7,-3.5 -1.5,-0.9 -3.2,-1.3 -5,-1.3 -1.8,-0.1 -3.5,0.3 -5.1,1.2 z"
   fill="#6d6e71" />
	<path
   id="path522"
   d="m 304.9,304.4 v 8.7 h 11.6 v 2.7 h -11.6 v 10.6 H 302 v -24.9 h 15.8 v 2.7 h -12.9 z"
   fill="#6d6e71" />
	<path
   id="path524"
   d="m 340.9,304.4 v 22.1 h -2.8 V 304.4 H 330 v -2.7 h 19 v 2.7 z"
   fill="#6d6e71" />
	<path
   id="path526"
   d="m 385.8,326.5 -6.7,-20.9 -6.8,20.9 h -2.9 l -8.3,-24.9 h 3.1 l 6.8,21.6 6.7,-21.5 h 2.8 l 6.8,21.6 6.7,-21.6 h 2.9 l -8.3,24.9 h -2.8 z"
   fill="#6d6e71" />
	<path
   id="path528"
   d="m 411.2,320.3 -2.8,6.3 h -3 l 11.1,-24.9 h 2.9 l 11.1,24.9 h -3.1 l -2.8,-6.3 z m 6.8,-15.4 -5.5,12.6 h 11.1 z"
   fill="#6d6e71" />
	<path
   id="path530"
   d="m 455.3,318.6 c -0.7,0 -1.3,0.1 -1.7,0.1 H 447 v 7.9 h -2.8 v -24.9 h 9.4 c 3.1,0 5.5,0.7 7.2,2.2 1.7,1.5 2.6,3.5 2.6,6.2 0,2 -0.5,3.7 -1.4,5.1 -1,1.4 -2.3,2.4 -4.1,3 l 5.8,8.4 h -3.2 z m 3.6,-4.1 c 1.2,-1 1.8,-2.5 1.8,-4.4 0,-1.9 -0.6,-3.3 -1.8,-4.2 -1.2,-1 -3,-1.4 -5.2,-1.4 h -6.6 V 316 h 6.6 c 2.2,0 4,-0.5 5.2,-1.5 z"
   fill="#6d6e71" />
	<path
   id="path532"
   d="m 482.2,304.4 v 8.2 h 12.5 v 2.7 h -12.5 v 8.5 h 14.5 v 2.7 h -17.3 v -24.9 h 16.9 v 2.7 h -14.1 z"
   fill="#6d6e71" />
	<path
   id="path534"
   d="m 536.3,304.4 v 8.7 h 11.6 v 2.7 h -11.6 v 10.6 h -2.8 v -24.9 h 15.8 v 2.7 h -13 z"
   fill="#6d6e71" />
	<path
   id="path536"
   d="m 580.7,303.3 c 2,1.1 3.6,2.6 4.7,4.5 1.2,1.9 1.7,4 1.7,6.3 0,2.3 -0.6,4.4 -1.7,6.3 -1.2,1.9 -2.7,3.4 -4.7,4.6 -2,1.1 -4.2,1.7 -6.5,1.7 -2.4,0 -4.6,-0.6 -6.6,-1.7 -2,-1.1 -3.6,-2.6 -4.7,-4.6 -1.2,-1.9 -1.7,-4 -1.7,-6.3 0,-2.3 0.6,-4.4 1.7,-6.3 1.2,-1.9 2.7,-3.4 4.7,-4.5 2,-1.1 4.2,-1.7 6.6,-1.7 2.4,0 4.6,0.6 6.5,1.7 z m -11.5,2.3 c -1.5,0.9 -2.8,2.1 -3.7,3.6 -0.9,1.5 -1.4,3.1 -1.4,4.9 0,1.8 0.5,3.5 1.4,5 0.9,1.5 2.2,2.7 3.7,3.6 1.5,0.9 3.2,1.3 5.1,1.3 1.8,0 3.5,-0.4 5,-1.3 1.5,-0.9 2.8,-2.1 3.7,-3.6 0.9,-1.5 1.4,-3.2 1.4,-5 0,-1.8 -0.5,-3.4 -1.4,-4.9 -0.9,-1.5 -2.1,-2.7 -3.7,-3.5 -1.5,-0.9 -3.2,-1.3 -5,-1.3 -1.9,-0.1 -3.6,0.3 -5.1,1.2 z"
   fill="#6d6e71" />
	<path
   id="path538"
   d="m 619.9,323.9 c -1.8,1.8 -4.4,2.7 -7.6,2.7 -3.3,0 -5.8,-0.9 -7.7,-2.7 -1.9,-1.8 -2.8,-4.4 -2.8,-7.6 v -14.6 h 2.8 v 14.6 c 0,2.4 0.7,4.3 2,5.6 1.4,1.3 3.2,2 5.6,2 2.4,0 4.2,-0.7 5.6,-2 1.3,-1.3 2,-3.2 2,-5.6 v -14.6 h 2.8 v 14.6 c 0,3.3 -0.9,5.8 -2.7,7.6 z"
   fill="#6d6e71" />
	<path
   id="path540"
   d="m 657,326.5 -14.9,-20 v 20 h -2.8 v -24.9 h 2.9 l 14.9,20 v -20 h 2.8 v 24.9 z"
   fill="#6d6e71" />
	<path
   id="path542"
   d="m 693.5,303.3 c 1.9,1.1 3.5,2.6 4.6,4.5 1.1,1.9 1.7,4 1.7,6.3 0,2.3 -0.6,4.4 -1.7,6.3 -1.1,1.9 -2.7,3.4 -4.6,4.5 -2,1.1 -4.2,1.6 -6.6,1.6 h -10 V 301.6 H 687 c 2.4,0.1 4.6,0.6 6.5,1.7 z m -13.7,20.5 h 7.2 c 1.8,0 3.5,-0.4 5,-1.3 1.5,-0.8 2.7,-2 3.6,-3.5 0.9,-1.5 1.3,-3.1 1.3,-5 0,-1.8 -0.4,-3.5 -1.3,-4.9 -0.9,-1.5 -2.1,-2.6 -3.6,-3.5 -1.5,-0.9 -3.2,-1.3 -5,-1.3 h -7.1 v 19.5 z"
   fill="#6d6e71" />
	<path
   id="path544"
   d="m 715.9,320.3 -2.8,6.3 h -3 l 11.1,-24.9 h 2.9 l 11.1,24.9 h -3.1 l -2.8,-6.3 z m 6.8,-15.4 -5.5,12.6 h 11.1 z"
   fill="#6d6e71" />
	<path
   id="path546"
   d="m 754,304.4 v 22.1 h -2.8 v -22.1 h -8.1 v -2.7 h 19.1 v 2.7 z"
   fill="#6d6e71" />
	<path
   id="path548"
   d="m 775.8,326.5 v -24.9 h 2.8 v 24.9 z"
   fill="#6d6e71" />
	<path
   id="path550"
   d="m 813.4,303.3 c 2,1.1 3.6,2.6 4.7,4.5 1.2,1.9 1.7,4 1.7,6.3 0,2.3 -0.6,4.4 -1.7,6.3 -1.2,1.9 -2.7,3.4 -4.7,4.6 -2,1.1 -4.2,1.7 -6.5,1.7 -2.4,0 -4.6,-0.6 -6.6,-1.7 -2,-1.1 -3.6,-2.6 -4.7,-4.6 -1.2,-1.9 -1.7,-4 -1.7,-6.3 0,-2.3 0.6,-4.4 1.7,-6.3 1.2,-1.9 2.7,-3.4 4.7,-4.5 2,-1.1 4.2,-1.7 6.6,-1.7 2.3,0 4.5,0.6 6.5,1.7 z m -11.6,2.3 c -1.5,0.9 -2.8,2.1 -3.7,3.6 -0.9,1.5 -1.4,3.1 -1.4,4.9 0,1.8 0.5,3.5 1.4,5 0.9,1.5 2.2,2.7 3.7,3.6 1.5,0.9 3.2,1.3 5.1,1.3 1.8,0 3.5,-0.4 5,-1.3 1.5,-0.9 2.8,-2.1 3.7,-3.6 0.9,-1.5 1.4,-3.2 1.4,-5 0,-1.8 -0.5,-3.4 -1.4,-4.9 -0.9,-1.5 -2.1,-2.7 -3.7,-3.5 -1.5,-0.9 -3.2,-1.3 -5,-1.3 -1.9,-0.1 -3.6,0.3 -5.1,1.2 z"
   fill="#6d6e71" />
	<path
   id="path552"
   d="m 852.6,326.5 -14.9,-20 v 20 h -2.8 v -24.9 h 2.9 l 14.9,20 v -20 h 2.8 v 24.9 z"
   fill="#6d6e71" />
</g>
<g
   transform="matrix(1.0699318,0,0,1.0699318,-29.423746,-39.077896)"
   id="g692">
	
		<linearGradient
   gradientTransform="matrix(0.4226,-0.9063,0.9063,0.4226,4442.6831,-6372.6807)"
   y2="-1080.9456"
   x2="-7610.187"
   y1="-1137.2941"
   x1="-7658.376"
   gradientUnits="userSpaceOnUse"
   id="SVGID_1_">
		<stop
   id="stop556"
   style="stop-color:#F69923"
   offset="0" />
		<stop
   id="stop558"
   style="stop-color:#F79A23"
   offset="0.3123" />
		<stop
   id="stop560"
   style="stop-color:#E97826"
   offset="0.8383" />
	</linearGradient>
	<path
   style="fill:url(#SVGID_1_)"
   id="path563"
   d="m 192,60.2 c -5.4,3.2 -14.2,12.1 -24.9,25.1 l 9.8,18.4 c 6.8,-9.8 13.8,-18.6 20.8,-26.1 0.5,-0.6 0.8,-0.9 0.8,-0.9 -0.3,0.3 -0.5,0.6 -0.8,0.9 -2.3,2.5 -9.2,10.5 -19.5,26.5 10,-0.5 25.4,-2.5 37.9,-4.7 3.7,-20.9 -3.7,-30.5 -3.7,-30.5 0,0 -9.4,-15.2 -20.4,-8.7 z"
   fill="url(#SVGID_1_)" />
	<path
   id="path565"
   d="m 175.5,165.2 c 0.1,0 0.1,0 0.2,0 l -1.4,0.2 c -0.1,0 -0.2,0.1 -0.2,0.1 0.4,-0.2 0.9,-0.2 1.4,-0.3 z"
   fill="none" />
	<path
   id="path567"
   d="m 165.5,198.2 c -0.8,0.2 -1.6,0.3 -2.4,0.4 0.8,-0.1 1.6,-0.3 2.4,-0.4 z"
   fill="none" />
	<path
   id="path569"
   d="m 97.9,272.1 c 0.1,-0.3 0.2,-0.6 0.3,-0.8 2.1,-5.7 4.3,-11.2 6.4,-16.5 2.4,-6 4.7,-11.9 7,-17.5 2.4,-6 4.8,-11.7 7.2,-17.3 2.5,-5.8 4.9,-11.5 7.3,-16.9 2,-4.4 3.9,-8.7 5.8,-12.8 0.6,-1.4 1.3,-2.7 1.9,-4.1 1.2,-2.7 2.5,-5.3 3.7,-7.9 1.1,-2.4 2.2,-4.7 3.3,-6.9 0.4,-0.8 0.7,-1.5 1.1,-2.3 0.1,-0.1 0.1,-0.2 0.2,-0.4 l -1.2,0.1 -0.9,-1.9 c -0.1,0.2 -0.2,0.4 -0.3,0.5 -1.7,3.4 -3.4,6.8 -5.1,10.3 -1,2 -1.9,4 -2.9,6 -2.7,5.6 -5.3,11.2 -7.9,16.9 -2.6,5.7 -5.2,11.5 -7.7,17.3 -2.5,5.7 -4.9,11.4 -7.2,17 -2.4,5.7 -4.7,11.3 -6.9,16.9 -2.3,5.8 -4.6,11.6 -6.8,17.4 -0.5,1.3 -1,2.6 -1.5,3.9 -1.8,4.6 -3.5,9.2 -5.2,13.7 l 1.5,3 1.3,-0.1 c 0,-0.1 0.1,-0.3 0.1,-0.4 2.2,-5.8 4.3,-11.6 6.5,-17.2 z"
   fill="none" />
	<path
   id="path571"
   d="m 162.5,198.7 v 0 c 0,0 0,0 0,0 0,0 0,0 0,0 z"
   fill="none" />
	<path
   id="path573"
   d="m 159.2,214.8 c -1.2,0.2 -2.5,0.4 -3.8,0.7 0,0 0,0 0,0 0.7,-0.1 1.3,-0.2 2,-0.3 0.6,-0.2 1.2,-0.3 1.8,-0.4 z"
   fill="#be202e" />
	<path
   id="path575"
   d="m 159.2,214.8 c -1.2,0.2 -2.5,0.4 -3.8,0.7 0,0 0,0 0,0 0.7,-0.1 1.3,-0.2 2,-0.3 0.6,-0.2 1.2,-0.3 1.8,-0.4 z"
   fill="#be202e"
   opacity="0.35" />
	<path
   id="path577"
   d="m 162.5,198.7 c 0,0 0,0 0,0 0,0 0,0 0,0 0.2,0 0.4,0 0.6,-0.1 0.8,-0.1 1.6,-0.3 2.4,-0.4 -1,0.1 -2,0.3 -3,0.5 z"
   fill="#be202e" />
	<path
   id="path579"
   d="m 162.5,198.7 c 0,0 0,0 0,0 0,0 0,0 0,0 0.2,0 0.4,0 0.6,-0.1 0.8,-0.1 1.6,-0.3 2.4,-0.4 -1,0.1 -2,0.3 -3,0.5 z"
   fill="#be202e"
   opacity="0.35" />
	
		<linearGradient
   gradientTransform="matrix(0.4226,-0.9063,0.9063,0.4226,4442.6831,-6372.6807)"
   y2="-1143.5137"
   x2="-7671.2197"
   y1="-1143.5137"
   x1="-8015.0215"
   gradientUnits="userSpaceOnUse"
   id="SVGID_2_">
		<stop
   id="stop581"
   style="stop-color:#9E2064"
   offset="0.3233" />
		<stop
   id="stop583"
   style="stop-color:#C92037"
   offset="0.6302" />
		<stop
   id="stop585"
   style="stop-color:#CD2335"
   offset="0.7514" />
		<stop
   id="stop587"
   style="stop-color:#E97826"
   offset="1" />
	</linearGradient>
	<path
   style="fill:url(#SVGID_2_)"
   id="path590"
   d="m 148.1,151.2 c 3,-5.5 6,-11 9,-16.2 3.2,-5.5 6.3,-10.8 9.6,-15.9 0.2,-0.3 0.4,-0.6 0.6,-0.9 3.2,-5 6.4,-9.9 9.6,-14.5 l -9.8,-18.4 c -0.7,0.9 -1.5,1.8 -2.2,2.7 -2.8,3.5 -5.7,7.3 -8.7,11.3 -3.4,4.5 -6.8,9.3 -10.4,14.4 -3.3,4.7 -6.6,9.5 -9.9,14.6 -2.8,4.3 -5.6,8.7 -8.4,13.3 -0.1,0.2 -0.2,0.3 -0.3,0.5 l 12.7,25.1 c 2.7,-5.5 5.4,-10.8 8.2,-16 z"
   fill="url(#SVGID_2_)" />
	
		<linearGradient
   gradientTransform="matrix(0.4226,-0.9063,0.9063,0.4226,4442.6831,-6372.6807)"
   y2="-1109.0308"
   x2="-7768.6475"
   y1="-1109.0308"
   x1="-7973.52"
   gradientUnits="userSpaceOnUse"
   id="SVGID_3_">
		<stop
   id="stop592"
   style="stop-color:#282662"
   offset="0" />
		<stop
   id="stop594"
   style="stop-color:#662E8D"
   offset="9.548390e-02" />
		<stop
   id="stop596"
   style="stop-color:#9F2064"
   offset="0.7882" />
		<stop
   id="stop598"
   style="stop-color:#CD2032"
   offset="0.9487" />
	</linearGradient>
	<path
   style="fill:url(#SVGID_3_)"
   id="path601"
   d="m 90.3,292.4 c -1.7,4.6 -3.4,9.3 -5.1,14.1 0,0.1 0,0.1 -0.1,0.2 -0.2,0.7 -0.5,1.4 -0.7,2 -1.1,3.2 -2.1,6.1 -4.4,12.8 3.7,1.7 6.7,6.2 9.6,11.3 -0.3,-5.3 -2.5,-10.2 -6.6,-14.1 18.4,0.8 34.3,-3.8 42.5,-17.3 0.7,-1.2 1.4,-2.5 2,-3.8 -3.7,4.7 -8.4,6.7 -17.1,6.3 0,0 0,0 -0.1,0 0,0 0,0 0.1,0 12.8,-5.7 19.2,-11.2 24.9,-20.4 1.3,-2.2 2.7,-4.5 4,-7.1 -11.2,11.5 -24.2,14.8 -37.9,12.3 l -10.3,1.1 c -0.1,0.9 -0.5,1.8 -0.8,2.6 z"
   fill="url(#SVGID_3_)" />
	
		<linearGradient
   gradientTransform="matrix(0.4226,-0.9063,0.9063,0.4226,4442.6831,-6372.6807)"
   y2="-1146.7173"
   x2="-7651.9102"
   y1="-1146.7173"
   x1="-7995.7114"
   gradientUnits="userSpaceOnUse"
   id="SVGID_4_">
		<stop
   id="stop603"
   style="stop-color:#9E2064"
   offset="0.3233" />
		<stop
   id="stop605"
   style="stop-color:#C92037"
   offset="0.6302" />
		<stop
   id="stop607"
   style="stop-color:#CD2335"
   offset="0.7514" />
		<stop
   id="stop609"
   style="stop-color:#E97826"
   offset="1" />
	</linearGradient>
	<path
   style="fill:url(#SVGID_4_)"
   id="path612"
   d="m 95.1,269.5 c 2.2,-5.7 4.5,-11.5 6.8,-17.4 2.2,-5.6 4.5,-11.2 6.9,-16.9 2.4,-5.7 4.8,-11.3 7.2,-17 2.5,-5.8 5.1,-11.6 7.7,-17.3 2.6,-5.7 5.2,-11.3 7.9,-16.9 1,-2 1.9,-4 2.9,-6 1.7,-3.5 3.4,-6.9 5.1,-10.3 0.1,-0.2 0.2,-0.4 0.3,-0.5 L 127.2,142 c -0.2,0.3 -0.4,0.7 -0.6,1 -3,4.8 -5.9,9.8 -8.8,14.8 -2.9,5.1 -5.8,10.3 -8.6,15.5 -2.4,4.4 -4.7,8.9 -6.9,13.4 -0.5,0.9 -0.9,1.8 -1.3,2.7 -2.8,5.7 -5.3,11.2 -7.5,16.5 -2.6,6 -4.8,11.7 -6.8,17.1 -1.3,3.6 -2.5,7 -3.6,10.3 -0.9,2.8 -1.7,5.7 -2.5,8.5 -1.9,6.6 -3.5,13.3 -4.9,19.9 L 88.4,287 c 1.7,-4.5 3.4,-9.1 5.2,-13.7 0.5,-1.2 1,-2.5 1.5,-3.8 z"
   fill="url(#SVGID_4_)" />
	
		<linearGradient
   gradientTransform="matrix(0.4226,-0.9063,0.9063,0.4226,4442.6831,-6372.6807)"
   y2="-1142.0658"
   x2="-7789.96"
   y1="-1142.0658"
   x1="-7970.6377"
   gradientUnits="userSpaceOnUse"
   id="SVGID_5_">
		<stop
   id="stop614"
   style="stop-color:#282662"
   offset="0" />
		<stop
   id="stop616"
   style="stop-color:#662E8D"
   offset="9.548390e-02" />
		<stop
   id="stop618"
   style="stop-color:#9F2064"
   offset="0.7882" />
		<stop
   id="stop620"
   style="stop-color:#CD2032"
   offset="0.9487" />
	</linearGradient>
	<path
   style="fill:url(#SVGID_5_)"
   id="path623"
   d="m 75.5,262.7 c -1.6,8.1 -2.7,16.1 -3.3,24.1 0,0.3 0,0.6 -0.1,0.8 -4,-6.4 -14.6,-12.6 -14.6,-12.5 7.6,11.1 13.4,22 14.3,32.8 -4.1,0.8 -9.7,-0.4 -16.1,-2.7 6.7,6.2 11.8,7.9 13.8,8.4 -6.2,0.4 -12.6,4.6 -19.1,9.5 9.5,-3.9 17.2,-5.4 22.7,-4.2 -8.7,24.7 -17.5,51.9 -26.2,80.9 2.7,-0.8 4.3,-2.6 5.2,-5 1.6,-5.2 11.9,-39.6 28.1,-84.8 0.5,-1.3 0.9,-2.6 1.4,-3.9 0.1,-0.4 0.3,-0.7 0.4,-1.1 1.7,-4.7 3.5,-9.6 5.3,-14.5 0.4,-1.1 0.8,-2.2 1.3,-3.4 0,0 0,0 0,-0.1 L 75.9,261.8 c -0.3,0.4 -0.3,0.7 -0.4,0.9 z"
   fill="url(#SVGID_5_)" />
	
		<linearGradient
   gradientTransform="matrix(0.4226,-0.9063,0.9063,0.4226,4442.6831,-6372.6807)"
   y2="-1111.135"
   x2="-7651.9102"
   y1="-1111.135"
   x1="-7995.7114"
   gradientUnits="userSpaceOnUse"
   id="SVGID_6_">
		<stop
   id="stop625"
   style="stop-color:#9E2064"
   offset="0.3233" />
		<stop
   id="stop627"
   style="stop-color:#C92037"
   offset="0.6302" />
		<stop
   id="stop629"
   style="stop-color:#CD2335"
   offset="0.7514" />
		<stop
   id="stop631"
   style="stop-color:#E97826"
   offset="1" />
	</linearGradient>
	<path
   style="fill:url(#SVGID_6_)"
   id="path634"
   d="m 141.9,169.2 c -0.4,0.7 -0.7,1.5 -1.1,2.3 -1.1,2.3 -2.2,4.6 -3.3,6.9 -1.2,2.6 -2.4,5.2 -3.7,7.9 -0.6,1.3 -1.3,2.7 -1.9,4.1 -1.9,4.1 -3.8,8.4 -5.8,12.8 -2.4,5.4 -4.8,11 -7.3,16.9 -2.4,5.6 -4.8,11.3 -7.2,17.3 -2.3,5.7 -4.6,11.5 -7,17.5 -2.1,5.4 -4.2,10.9 -6.4,16.5 -0.1,0.3 -0.2,0.5 -0.3,0.8 -2.1,5.6 -4.3,11.4 -6.4,17.3 0,0.1 -0.1,0.3 -0.1,0.4 l 10.3,-1.1 c -0.2,0 -0.4,-0.1 -0.6,-0.1 12.3,-1.5 28.6,-10.7 39.1,-22 4.9,-5.2 9.3,-11.4 13.3,-18.6 3,-5.4 5.9,-11.3 8.6,-17.9 2.4,-5.8 4.6,-12 6.8,-18.7 -2.8,1.5 -6,2.6 -9.6,3.3 -0.6,0.1 -1.3,0.3 -1.9,0.4 -0.6,0.1 -1.3,0.2 -2,0.3 v 0 0 c 0,0 0,0 0,0 11.4,-4.4 18.7,-12.9 23.9,-23.3 -3,2.1 -7.9,4.7 -13.8,6 -0.8,0.2 -1.6,0.3 -2.4,0.4 -0.2,0 -0.4,0.1 -0.6,0.1 v 0 0 c 0,0 0,0 0,0 0,0 0,0 0,0 v 0 c 4,-1.7 7.3,-3.5 10.2,-5.7 0.6,-0.5 1.2,-1 1.8,-1.5 0.9,-0.8 1.7,-1.6 2.5,-2.4 0.5,-0.5 1,-1.1 1.5,-1.7 1.1,-1.4 2.2,-2.8 3.2,-4.4 0.3,-0.5 0.6,-1 0.9,-1.5 0.4,-0.7 0.7,-1.5 1.1,-2.2 1.6,-3.2 2.9,-6.1 3.9,-8.6 0.5,-1.3 1,-2.4 1.3,-3.5 0.2,-0.4 0.3,-0.8 0.4,-1.3 0.4,-1.2 0.7,-2.3 1,-3.2 0.4,-1.4 0.6,-2.5 0.8,-3.3 v 0 0 c -0.4,0.3 -0.8,0.6 -1.3,0.9 -3.5,2.1 -9.4,3.9 -14.2,4.8 l 9.4,-1 -9.4,1 c -0.1,0 -0.1,0 -0.2,0 -0.5,0.1 -1,0.2 -1.4,0.2 0.1,0 0.2,-0.1 0.2,-0.1 l -32.2,3.5 c 0,0.3 -0.1,0.4 -0.1,0.5 z"
   fill="url(#SVGID_6_)" />
	
		<linearGradient
   gradientTransform="matrix(0.4226,-0.9063,0.9063,0.4226,4442.6831,-6372.6807)"
   y2="-1112.902"
   x2="-7673.2373"
   y1="-1112.902"
   x1="-8017.0386"
   gradientUnits="userSpaceOnUse"
   id="SVGID_7_">
		<stop
   id="stop636"
   style="stop-color:#9E2064"
   offset="0.3233" />
		<stop
   id="stop638"
   style="stop-color:#C92037"
   offset="0.6302" />
		<stop
   id="stop640"
   style="stop-color:#CD2335"
   offset="0.7514" />
		<stop
   id="stop642"
   style="stop-color:#E97826"
   offset="1" />
	</linearGradient>
	<path
   style="fill:url(#SVGID_7_)"
   id="path645"
   d="m 178.1,104 c -2.9,4.4 -6,9.4 -9.4,15.1 -0.2,0.3 -0.4,0.6 -0.5,0.9 -2.9,4.9 -6,10.3 -9.2,16.2 -2.8,5.1 -5.7,10.5 -8.8,16.4 -2.6,5.1 -5.4,10.5 -8.2,16.3 l 32.2,-3.5 c 9.4,-4.3 13.6,-8.2 17.7,-13.9 1.1,-1.6 2.2,-3.2 3.3,-4.9 3.3,-5.2 6.6,-10.9 9.5,-16.5 2.8,-5.5 5.3,-10.9 7.2,-15.8 1.2,-3.1 2.2,-6 2.8,-8.5 0.6,-2.2 1,-4.4 1.4,-6.4 -12.6,2.1 -28,4.1 -38,4.6 z"
   fill="url(#SVGID_7_)" />
	<path
   id="path647"
   d="m 157.3,215.1 c -0.6,0.1 -1.3,0.2 -2,0.3 v 0 c 0.7,0 1.4,-0.1 2,-0.3 z"
   fill="#be202e" />
	<path
   id="path649"
   d="m 157.3,215.1 c -0.6,0.1 -1.3,0.2 -2,0.3 v 0 c 0.7,0 1.4,-0.1 2,-0.3 z"
   fill="#be202e"
   opacity="0.35" />
	
		<linearGradient
   gradientTransform="matrix(0.4226,-0.9063,0.9063,0.4226,4442.6831,-6372.6807)"
   y2="-1100.5521"
   x2="-7651.9102"
   y1="-1100.5521"
   x1="-7995.7114"
   gradientUnits="userSpaceOnUse"
   id="SVGID_8_">
		<stop
   id="stop651"
   style="stop-color:#9E2064"
   offset="0.3233" />
		<stop
   id="stop653"
   style="stop-color:#C92037"
   offset="0.6302" />
		<stop
   id="stop655"
   style="stop-color:#CD2335"
   offset="0.7514" />
		<stop
   id="stop657"
   style="stop-color:#E97826"
   offset="1" />
	</linearGradient>
	<path
   style="fill:url(#SVGID_8_)"
   id="path660"
   d="m 157.3,215.1 c -0.6,0.1 -1.3,0.2 -2,0.3 v 0 c 0.7,0 1.4,-0.1 2,-0.3 z"
   fill="url(#SVGID_8_)" />
	<path
   id="path662"
   d="m 162.5,198.7 c 0.2,0 0.4,-0.1 0.6,-0.1 -0.2,0 -0.4,0.1 -0.6,0.1 z"
   fill="#be202e" />
	<path
   id="path664"
   d="m 162.5,198.7 c 0.2,0 0.4,-0.1 0.6,-0.1 -0.2,0 -0.4,0.1 -0.6,0.1 z"
   fill="#be202e"
   opacity="0.35" />
	
		<linearGradient
   gradientTransform="matrix(0.4226,-0.9063,0.9063,0.4226,4442.6831,-6372.6807)"
   y2="-1101.7631"
   x2="-7651.9102"
   y1="-1101.7631"
   x1="-7995.7114"
   gradientUnits="userSpaceOnUse"
   id="SVGID_9_">
		<stop
   id="stop666"
   style="stop-color:#9E2064"
   offset="0.3233" />
		<stop
   id="stop668"
   style="stop-color:#C92037"
   offset="0.6302" />
		<stop
   id="stop670"
   style="stop-color:#CD2335"
   offset="0.7514" />
		<stop
   id="stop672"
   style="stop-color:#E97826"
   offset="1" />
	</linearGradient>
	<path
   style="fill:url(#SVGID_9_)"
   id="path675"
   d="m 162.5,198.7 c 0.2,0 0.4,-0.1 0.6,-0.1 -0.2,0 -0.4,0.1 -0.6,0.1 z"
   fill="url(#SVGID_9_)" />
	<polygon
   id="polygon677"
   points=""
   fill="#be202e" />
	<polygon
   id="polygon679"
   points=""
   fill="#be202e"
   opacity="0.35" />
	
		<linearGradient
   gradientTransform="matrix(0.4226,-0.9063,0.9063,0.4226,4442.6831,-6372.6807)"
   y2="-1102.006"
   x2="-7726.5776"
   y1="-1102.006"
   x1="-7802.5688"
   gradientUnits="userSpaceOnUse"
   id="SVGID_10_">
		<stop
   id="stop681"
   style="stop-color:#9E2064"
   offset="0.3233" />
		<stop
   id="stop683"
   style="stop-color:#C92037"
   offset="0.6302" />
		<stop
   id="stop685"
   style="stop-color:#CD2335"
   offset="0.7514" />
		<stop
   id="stop687"
   style="stop-color:#E97826"
   offset="1" />
	</linearGradient>
	<polygon
   style="fill:url(#SVGID_10_)"
   id="polygon690"
   points=""
   fill="url(#SVGID_10_)" />
</g>
<g
   transform="matrix(1.0699318,0,0,1.0699318,-29.423746,-39.077896)"
   id="g700">
	<g
   id="g698">
		<path
   id="path694"
   d="m 870.1,161.4 v 8.3 h -2.3 v -8.3 h -2.9 v -2 h 8.2 v 2 z"
   fill="#b0afb0" />
		<path
   id="path696"
   d="m 884,163.2 -2.8,5.6 h -1.4 l -2.8,-5.6 v 6.5 h -2.3 v -10.3 h 3.1 l 2.7,5.7 2.7,-5.7 h 3.1 v 10.3 H 884 Z"
   fill="#b0afb0" />
	</g>
</g>
<g
   transform="matrix(1.0699318,0,0,1.0699318,-29.423746,-39.077896)"
   id="g708">
	<path
   id="path702"
   d="m 259.7,117.6 v 18.3 h -2.4 v -18.3 h -6.7 v -2.3 h 15.8 v 2.3 z"
   fill="#6d6e71" />
	<path
   id="path704"
   d="m 292.6,135.9 v -9.1 h -12.4 v 9.1 h -2.4 v -20.6 h 2.4 v 9.3 h 12.4 v -9.3 h 2.4 v 20.6 z"
   fill="#6d6e71" />
	<path
   id="path706"
   d="m 311.4,117.6 v 6.8 h 10.4 v 2.3 h -10.4 v 7.1 h 12 V 136 H 309 v -20.6 h 14 v 2.3 h -11.6 z"
   fill="#6d6e71" />
</g>
<g
   transform="matrix(1.0699318,0,0,1.0699318,-29.423746,-39.077896)"
   id="g724">
	<g
   id="g722">
		<path
   id="path710"
   d="m 232.6,277.3 49.3,-117.8 h 9.5 l 49.3,117.8 H 328.3 L 313,240.5 h -53 l -15.1,36.8 z m 54.1,-104.2 -24.2,58.2 h 47.8 z"
   fill="#d22128" />
		<path
   id="path712"
   d="M 353.3,277.3 V 159.5 h 48.8 c 20.2,0 34.8,18.7 34.8,37 0,19.2 -13.6,37.3 -33.8,37.3 h -38.3 v 43.5 z m 11.5,-53.8 h 37.7 c 13.9,0 22.9,-12.8 22.9,-27 0,-14.8 -10.9,-26.7 -23.9,-26.7 h -36.7 z"
   fill="#d22128" />
		<path
   id="path714"
   d="m 430.5,277.3 49.3,-117.8 h 9.5 l 49.3,117.8 H 526 l -15.3,-36.8 h -52.9 l -15.1,36.8 z m 54.1,-104.2 -24.2,58.2 h 47.8 z"
   fill="#d22128" />
		<path
   id="path716"
   d="m 594.2,158.8 c 20.9,0 36.2,10.6 43.5,25.7 l -9.3,5.6 c -7.5,-15.6 -22.1,-20.9 -34.8,-20.9 -28.2,0 -43.6,25.2 -43.6,48.9 0,26 19.1,49.6 44.1,49.6 13.3,0 28.9,-6.6 36.3,-21.9 l 9.6,5 c -7.6,17.6 -28.5,27.4 -46.6,27.4 -32.3,0 -55.1,-30.9 -55.1,-60.7 0,-28.3 20.4,-58.7 55.9,-58.7 z"
   fill="#d22128" />
		<path
   id="path718"
   d="m 749.1,159.5 v 117.8 h -11.6 v -55.1 h -69.8 v 55.1 H 656.3 V 159.5 h 11.4 v 52.4 h 69.8 v -52.4 z"
   fill="#d22128" />
		<path
   id="path720"
   d="m 854.8,267 v 10.3 H 775.7 V 159.5 h 77.6 v 10.3 h -66.2 v 42.5 h 57.7 v 9.8 H 787.1 V 267 Z"
   fill="#d22128" />
	</g>
</g>
<g
   transform="matrix(1.0699318,0,0,1.0699318,-29.423746,-39.077896)"
   id="g762">
	<path
   id="path726"
   d="m 243.6,302.2 c 1.4,0.4 2.6,1 3.7,1.7 l -1.2,2.7 c -1.1,-0.7 -2.2,-1.2 -3.4,-1.6 -1.2,-0.3 -2.4,-0.5 -3.4,-0.5 -1.6,0 -2.9,0.3 -3.8,0.9 -1,0.6 -1.4,1.4 -1.4,2.4 0,0.9 0.3,1.6 0.8,2.2 0.5,0.6 1.2,1 2,1.4 0.8,0.3 1.9,0.7 3.3,1.1 1.7,0.5 3.1,1.1 4.1,1.5 1,0.5 1.9,1.2 2.7,2.1 0.7,0.9 1.1,2.1 1.1,3.7 0,1.4 -0.4,2.6 -1.1,3.6 -0.7,1 -1.8,1.8 -3.2,2.4 -1.4,0.6 -2.9,0.9 -4.7,0.9 -1.8,0 -3.5,-0.3 -5.2,-1 -1.7,-0.7 -3.1,-1.6 -4.3,-2.8 l 1.3,-2.5 c 1.1,1.1 2.4,2 3.9,2.6 1.5,0.6 2.9,0.9 4.3,0.9 1.8,0 3.2,-0.3 4.3,-1 1,-0.7 1.6,-1.6 1.6,-2.8 0,-0.9 -0.3,-1.7 -0.8,-2.3 -0.5,-0.6 -1.2,-1.1 -2,-1.4 -0.8,-0.3 -1.9,-0.7 -3.3,-1.1 -1.7,-0.5 -3,-1 -4.1,-1.4 -1,-0.5 -1.9,-1.1 -2.7,-2.1 -0.7,-0.9 -1.1,-2.1 -1.1,-3.6 0,-1.3 0.4,-2.4 1.1,-3.4 0.7,-1 1.7,-1.7 3,-2.3 1.3,-0.5 2.8,-0.8 4.5,-0.8 1.2,-0.1 2.6,0.1 4,0.5 z"
   fill="#6d6e71" />
	<path
   id="path728"
   d="m 280.5,303.3 c 2,1.1 3.6,2.6 4.7,4.5 1.2,1.9 1.7,4 1.7,6.3 0,2.3 -0.6,4.4 -1.7,6.3 -1.2,1.9 -2.7,3.4 -4.7,4.6 -2,1.1 -4.2,1.7 -6.5,1.7 -2.4,0 -4.6,-0.6 -6.6,-1.7 -2,-1.1 -3.6,-2.6 -4.7,-4.6 -1.2,-1.9 -1.7,-4 -1.7,-6.3 0,-2.3 0.6,-4.4 1.7,-6.3 1.2,-1.9 2.7,-3.4 4.7,-4.5 2,-1.1 4.2,-1.7 6.6,-1.7 2.3,0 4.5,0.6 6.5,1.7 z m -11.6,2.3 c -1.5,0.9 -2.8,2.1 -3.7,3.6 -0.9,1.5 -1.4,3.1 -1.4,4.9 0,1.8 0.5,3.5 1.4,5 0.9,1.5 2.2,2.7 3.7,3.6 1.5,0.9 3.2,1.3 5.1,1.3 1.8,0 3.5,-0.4 5,-1.3 1.5,-0.9 2.8,-2.1 3.7,-3.6 0.9,-1.5 1.4,-3.2 1.4,-5 0,-1.8 -0.5,-3.4 -1.4,-4.9 -0.9,-1.5 -2.1,-2.7 -3.7,-3.5 -1.5,-0.9 -3.2,-1.3 -5,-1.3 -1.8,-0.1 -3.5,0.3 -5.1,1.2 z"
   fill="#6d6e71" />
	<path
   id="path730"
   d="m 304.9,304.4 v 8.7 h 11.6 v 2.7 h -11.6 v 10.6 H 302 v -24.9 h 15.8 v 2.7 h -12.9 z"
   fill="#6d6e71" />
	<path
   id="path732"
   d="m 340.9,304.4 v 22.1 h -2.8 V 304.4 H 330 v -2.7 h 19 v 2.7 z"
   fill="#6d6e71" />
	<path
   id="path734"
   d="m 385.8,326.5 -6.7,-20.9 -6.8,20.9 h -2.9 l -8.3,-24.9 h 3.1 l 6.8,21.6 6.7,-21.5 h 2.8 l 6.8,21.6 6.7,-21.6 h 2.9 l -8.3,24.9 h -2.8 z"
   fill="#6d6e71" />
	<path
   id="path736"
   d="m 411.2,320.3 -2.8,6.3 h -3 l 11.1,-24.9 h 2.9 l 11.1,24.9 h -3.1 l -2.8,-6.3 z m 6.8,-15.4 -5.5,12.6 h 11.1 z"
   fill="#6d6e71" />
	<path
   id="path738"
   d="m 455.3,318.6 c -0.7,0 -1.3,0.1 -1.7,0.1 H 447 v 7.9 h -2.8 v -24.9 h 9.4 c 3.1,0 5.5,0.7 7.2,2.2 1.7,1.5 2.6,3.5 2.6,6.2 0,2 -0.5,3.7 -1.4,5.1 -1,1.4 -2.3,2.4 -4.1,3 l 5.8,8.4 h -3.2 z m 3.6,-4.1 c 1.2,-1 1.8,-2.5 1.8,-4.4 0,-1.9 -0.6,-3.3 -1.8,-4.2 -1.2,-1 -3,-1.4 -5.2,-1.4 h -6.6 V 316 h 6.6 c 2.2,0 4,-0.5 5.2,-1.5 z"
   fill="#6d6e71" />
	<path
   id="path740"
   d="m 482.2,304.4 v 8.2 h 12.5 v 2.7 h -12.5 v 8.5 h 14.5 v 2.7 h -17.3 v -24.9 h 16.9 v 2.7 h -14.1 z"
   fill="#6d6e71" />
	<path
   id="path742"
   d="m 536.3,304.4 v 8.7 h 11.6 v 2.7 h -11.6 v 10.6 h -2.8 v -24.9 h 15.8 v 2.7 h -13 z"
   fill="#6d6e71" />
	<path
   id="path744"
   d="m 580.7,303.3 c 2,1.1 3.6,2.6 4.7,4.5 1.2,1.9 1.7,4 1.7,6.3 0,2.3 -0.6,4.4 -1.7,6.3 -1.2,1.9 -2.7,3.4 -4.7,4.6 -2,1.1 -4.2,1.7 -6.5,1.7 -2.4,0 -4.6,-0.6 -6.6,-1.7 -2,-1.1 -3.6,-2.6 -4.7,-4.6 -1.2,-1.9 -1.7,-4 -1.7,-6.3 0,-2.3 0.6,-4.4 1.7,-6.3 1.2,-1.9 2.7,-3.4 4.7,-4.5 2,-1.1 4.2,-1.7 6.6,-1.7 2.4,0 4.6,0.6 6.5,1.7 z m -11.5,2.3 c -1.5,0.9 -2.8,2.1 -3.7,3.6 -0.9,1.5 -1.4,3.1 -1.4,4.9 0,1.8 0.5,3.5 1.4,5 0.9,1.5 2.2,2.7 3.7,3.6 1.5,0.9 3.2,1.3 5.1,1.3 1.8,0 3.5,-0.4 5,-1.3 1.5,-0.9 2.8,-2.1 3.7,-3.6 0.9,-1.5 1.4,-3.2 1.4,-5 0,-1.8 -0.5,-3.4 -1.4,-4.9 -0.9,-1.5 -2.1,-2.7 -3.7,-3.5 -1.5,-0.9 -3.2,-1.3 -5,-1.3 -1.9,-0.1 -3.6,0.3 -5.1,1.2 z"
   fill="#6d6e71" />
	<path
   id="path746"
   d="m 619.9,323.9 c -1.8,1.8 -4.4,2.7 -7.6,2.7 -3.3,0 -5.8,-0.9 -7.7,-2.7 -1.9,-1.8 -2.8,-4.4 -2.8,-7.6 v -14.6 h 2.8 v 14.6 c 0,2.4 0.7,4.3 2,5.6 1.4,1.3 3.2,2 5.6,2 2.4,0 4.2,-0.7 5.6,-2 1.3,-1.3 2,-3.2 2,-5.6 v -14.6 h 2.8 v 14.6 c 0,3.3 -0.9,5.8 -2.7,7.6 z"
   fill="#6d6e71" />
	<path
   id="path748"
   d="m 657,326.5 -14.9,-20 v 20 h -2.8 v -24.9 h 2.9 l 14.9,20 v -20 h 2.8 v 24.9 z"
   fill="#6d6e71" />
	<path
   id="path750"
   d="m 693.5,303.3 c 1.9,1.1 3.5,2.6 4.6,4.5 1.1,1.9 1.7,4 1.7,6.3 0,2.3 -0.6,4.4 -1.7,6.3 -1.1,1.9 -2.7,3.4 -4.6,4.5 -2,1.1 -4.2,1.6 -6.6,1.6 h -10 V 301.6 H 687 c 2.4,0.1 4.6,0.6 6.5,1.7 z m -13.7,20.5 h 7.2 c 1.8,0 3.5,-0.4 5,-1.3 1.5,-0.8 2.7,-2 3.6,-3.5 0.9,-1.5 1.3,-3.1 1.3,-5 0,-1.8 -0.4,-3.5 -1.3,-4.9 -0.9,-1.5 -2.1,-2.6 -3.6,-3.5 -1.5,-0.9 -3.2,-1.3 -5,-1.3 h -7.1 v 19.5 z"
   fill="#6d6e71" />
	<path
   id="path752"
   d="m 715.9,320.3 -2.8,6.3 h -3 l 11.1,-24.9 h 2.9 l 11.1,24.9 h -3.1 l -2.8,-6.3 z m 6.8,-15.4 -5.5,12.6 h 11.1 z"
   fill="#6d6e71" />
	<path
   id="path754"
   d="m 754,304.4 v 22.1 h -2.8 v -22.1 h -8.1 v -2.7 h 19.1 v 2.7 z"
   fill="#6d6e71" />
	<path
   id="path756"
   d="m 775.8,326.5 v -24.9 h 2.8 v 24.9 z"
   fill="#6d6e71" />
	<path
   id="path758"
   d="m 813.4,303.3 c 2,1.1 3.6,2.6 4.7,4.5 1.2,1.9 1.7,4 1.7,6.3 0,2.3 -0.6,4.4 -1.7,6.3 -1.2,1.9 -2.7,3.4 -4.7,4.6 -2,1.1 -4.2,1.7 -6.5,1.7 -2.4,0 -4.6,-0.6 -6.6,-1.7 -2,-1.1 -3.6,-2.6 -4.7,-4.6 -1.2,-1.9 -1.7,-4 -1.7,-6.3 0,-2.3 0.6,-4.4 1.7,-6.3 1.2,-1.9 2.7,-3.4 4.7,-4.5 2,-1.1 4.2,-1.7 6.6,-1.7 2.3,0 4.5,0.6 6.5,1.7 z m -11.6,2.3 c -1.5,0.9 -2.8,2.1 -3.7,3.6 -0.9,1.5 -1.4,3.1 -1.4,4.9 0,1.8 0.5,3.5 1.4,5 0.9,1.5 2.2,2.7 3.7,3.6 1.5,0.9 3.2,1.3 5.1,1.3 1.8,0 3.5,-0.4 5,-1.3 1.5,-0.9 2.8,-2.1 3.7,-3.6 0.9,-1.5 1.4,-3.2 1.4,-5 0,-1.8 -0.5,-3.4 -1.4,-4.9 -0.9,-1.5 -2.1,-2.7 -3.7,-3.5 -1.5,-0.9 -3.2,-1.3 -5,-1.3 -1.9,-0.1 -3.6,0.3 -5.1,1.2 z"
   fill="#6d6e71" />
	<path
   id="path760"
   d="m 852.6,326.5 -14.9,-20 v 20 h -2.8 v -24.9 h 2.9 l 14.9,20 v -20 h 2.8 v 24.9 z"
   fill="#6d6e71" />
</g>
<g
   transform="matrix(1.0699318,0,0,1.0699318,-29.423746,-39.077896)"
   id="g900">
	
		<linearGradient
   gradientTransform="matrix(0.4226,-0.9063,0.9063,0.4226,4442.6831,-6372.6807)"
   y2="-1080.9456"
   x2="-7610.187"
   y1="-1137.2941"
   x1="-7658.376"
   gradientUnits="userSpaceOnUse"
   id="SVGID_11_">
		<stop
   id="stop764"
   style="stop-color:#F69923"
   offset="0" />
		<stop
   id="stop766"
   style="stop-color:#F79A23"
   offset="0.3123" />
		<stop
   id="stop768"
   style="stop-color:#E97826"
   offset="0.8383" />
	</linearGradient>
	<path
   style="fill:url(#SVGID_11_)"
   id="path771"
   d="m 192,60.2 c -5.4,3.2 -14.2,12.1 -24.9,25.1 l 9.8,18.4 c 6.8,-9.8 13.8,-18.6 20.8,-26.1 0.5,-0.6 0.8,-0.9 0.8,-0.9 -0.3,0.3 -0.5,0.6 -0.8,0.9 -2.3,2.5 -9.2,10.5 -19.5,26.5 10,-0.5 25.4,-2.5 37.9,-4.7 3.7,-20.9 -3.7,-30.5 -3.7,-30.5 0,0 -9.4,-15.2 -20.4,-8.7 z"
   fill="url(#SVGID_11_)" />
	<path
   id="path773"
   d="m 175.5,165.2 c 0.1,0 0.1,0 0.2,0 l -1.4,0.2 c -0.1,0 -0.2,0.1 -0.2,0.1 0.4,-0.2 0.9,-0.2 1.4,-0.3 z"
   fill="none" />
	<path
   id="path775"
   d="m 165.5,198.2 c -0.8,0.2 -1.6,0.3 -2.4,0.4 0.8,-0.1 1.6,-0.3 2.4,-0.4 z"
   fill="none" />
	<path
   id="path777"
   d="m 97.9,272.1 c 0.1,-0.3 0.2,-0.6 0.3,-0.8 2.1,-5.7 4.3,-11.2 6.4,-16.5 2.4,-6 4.7,-11.9 7,-17.5 2.4,-6 4.8,-11.7 7.2,-17.3 2.5,-5.8 4.9,-11.5 7.3,-16.9 2,-4.4 3.9,-8.7 5.8,-12.8 0.6,-1.4 1.3,-2.7 1.9,-4.1 1.2,-2.7 2.5,-5.3 3.7,-7.9 1.1,-2.4 2.2,-4.7 3.3,-6.9 0.4,-0.8 0.7,-1.5 1.1,-2.3 0.1,-0.1 0.1,-0.2 0.2,-0.4 l -1.2,0.1 -0.9,-1.9 c -0.1,0.2 -0.2,0.4 -0.3,0.5 -1.7,3.4 -3.4,6.8 -5.1,10.3 -1,2 -1.9,4 -2.9,6 -2.7,5.6 -5.3,11.2 -7.9,16.9 -2.6,5.7 -5.2,11.5 -7.7,17.3 -2.5,5.7 -4.9,11.4 -7.2,17 -2.4,5.7 -4.7,11.3 -6.9,16.9 -2.3,5.8 -4.6,11.6 -6.8,17.4 -0.5,1.3 -1,2.6 -1.5,3.9 -1.8,4.6 -3.5,9.2 -5.2,13.7 l 1.5,3 1.3,-0.1 c 0,-0.1 0.1,-0.3 0.1,-0.4 2.2,-5.8 4.3,-11.6 6.5,-17.2 z"
   fill="none" />
	<path
   id="path779"
   d="m 162.5,198.7 v 0 c 0,0 0,0 0,0 0,0 0,0 0,0 z"
   fill="none" />
	<path
   id="path781"
   d="m 159.2,214.8 c -1.2,0.2 -2.5,0.4 -3.8,0.7 0,0 0,0 0,0 0.7,-0.1 1.3,-0.2 2,-0.3 0.6,-0.2 1.2,-0.3 1.8,-0.4 z"
   fill="#be202e" />
	<path
   id="path783"
   d="m 159.2,214.8 c -1.2,0.2 -2.5,0.4 -3.8,0.7 0,0 0,0 0,0 0.7,-0.1 1.3,-0.2 2,-0.3 0.6,-0.2 1.2,-0.3 1.8,-0.4 z"
   fill="#be202e"
   opacity="0.35" />
	<path
   id="path785"
   d="m 162.5,198.7 c 0,0 0,0 0,0 0,0 0,0 0,0 0.2,0 0.4,0 0.6,-0.1 0.8,-0.1 1.6,-0.3 2.4,-0.4 -1,0.1 -2,0.3 -3,0.5 z"
   fill="#be202e" />
	<path
   id="path787"
   d="m 162.5,198.7 c 0,0 0,0 0,0 0,0 0,0 0,0 0.2,0 0.4,0 0.6,-0.1 0.8,-0.1 1.6,-0.3 2.4,-0.4 -1,0.1 -2,0.3 -3,0.5 z"
   fill="#be202e"
   opacity="0.35" />
	
		<linearGradient
   gradientTransform="matrix(0.4226,-0.9063,0.9063,0.4226,4442.6831,-6372.6807)"
   y2="-1143.5137"
   x2="-7671.2197"
   y1="-1143.5137"
   x1="-8015.0215"
   gradientUnits="userSpaceOnUse"
   id="SVGID_12_">
		<stop
   id="stop789"
   style="stop-color:#9E2064"
   offset="0.3233" />
		<stop
   id="stop791"
   style="stop-color:#C92037"
   offset="0.6302" />
		<stop
   id="stop793"
   style="stop-color:#CD2335"
   offset="0.7514" />
		<stop
   id="stop795"
   style="stop-color:#E97826"
   offset="1" />
	</linearGradient>
	<path
   style="fill:url(#SVGID_12_)"
   id="path798"
   d="m 148.1,151.2 c 3,-5.5 6,-11 9,-16.2 3.2,-5.5 6.3,-10.8 9.6,-15.9 0.2,-0.3 0.4,-0.6 0.6,-0.9 3.2,-5 6.4,-9.9 9.6,-14.5 l -9.8,-18.4 c -0.7,0.9 -1.5,1.8 -2.2,2.7 -2.8,3.5 -5.7,7.3 -8.7,11.3 -3.4,4.5 -6.8,9.3 -10.4,14.4 -3.3,4.7 -6.6,9.5 -9.9,14.6 -2.8,4.3 -5.6,8.7 -8.4,13.3 -0.1,0.2 -0.2,0.3 -0.3,0.5 l 12.7,25.1 c 2.7,-5.5 5.4,-10.8 8.2,-16 z"
   fill="url(#SVGID_12_)" />
	
		<linearGradient
   gradientTransform="matrix(0.4226,-0.9063,0.9063,0.4226,4442.6831,-6372.6807)"
   y2="-1109.0308"
   x2="-7768.6475"
   y1="-1109.0308"
   x1="-7973.52"
   gradientUnits="userSpaceOnUse"
   id="SVGID_13_">
		<stop
   id="stop800"
   style="stop-color:#282662"
   offset="0" />
		<stop
   id="stop802"
   style="stop-color:#662E8D"
   offset="9.548390e-02" />
		<stop
   id="stop804"
   style="stop-color:#9F2064"
   offset="0.7882" />
		<stop
   id="stop806"
   style="stop-color:#CD2032"
   offset="0.9487" />
	</linearGradient>
	<path
   style="fill:url(#SVGID_13_)"
   id="path809"
   d="m 90.3,292.4 c -1.7,4.6 -3.4,9.3 -5.1,14.1 0,0.1 0,0.1 -0.1,0.2 -0.2,0.7 -0.5,1.4 -0.7,2 -1.1,3.2 -2.1,6.1 -4.4,12.8 3.7,1.7 6.7,6.2 9.6,11.3 -0.3,-5.3 -2.5,-10.2 -6.6,-14.1 18.4,0.8 34.3,-3.8 42.5,-17.3 0.7,-1.2 1.4,-2.5 2,-3.8 -3.7,4.7 -8.4,6.7 -17.1,6.3 0,0 0,0 -0.1,0 0,0 0,0 0.1,0 12.8,-5.7 19.2,-11.2 24.9,-20.4 1.3,-2.2 2.7,-4.5 4,-7.1 -11.2,11.5 -24.2,14.8 -37.9,12.3 l -10.3,1.1 c -0.1,0.9 -0.5,1.8 -0.8,2.6 z"
   fill="url(#SVGID_13_)" />
	
		<linearGradient
   gradientTransform="matrix(0.4226,-0.9063,0.9063,0.4226,4442.6831,-6372.6807)"
   y2="-1146.7173"
   x2="-7651.9102"
   y1="-1146.7173"
   x1="-7995.7114"
   gradientUnits="userSpaceOnUse"
   id="SVGID_14_">
		<stop
   id="stop811"
   style="stop-color:#9E2064"
   offset="0.3233" />
		<stop
   id="stop813"
   style="stop-color:#C92037"
   offset="0.6302" />
		<stop
   id="stop815"
   style="stop-color:#CD2335"
   offset="0.7514" />
		<stop
   id="stop817"
   style="stop-color:#E97826"
   offset="1" />
	</linearGradient>
	<path
   style="fill:url(#SVGID_14_)"
   id="path820"
   d="m 95.1,269.5 c 2.2,-5.7 4.5,-11.5 6.8,-17.4 2.2,-5.6 4.5,-11.2 6.9,-16.9 2.4,-5.7 4.8,-11.3 7.2,-17 2.5,-5.8 5.1,-11.6 7.7,-17.3 2.6,-5.7 5.2,-11.3 7.9,-16.9 1,-2 1.9,-4 2.9,-6 1.7,-3.5 3.4,-6.9 5.1,-10.3 0.1,-0.2 0.2,-0.4 0.3,-0.5 L 127.2,142 c -0.2,0.3 -0.4,0.7 -0.6,1 -3,4.8 -5.9,9.8 -8.8,14.8 -2.9,5.1 -5.8,10.3 -8.6,15.5 -2.4,4.4 -4.7,8.9 -6.9,13.4 -0.5,0.9 -0.9,1.8 -1.3,2.7 -2.8,5.7 -5.3,11.2 -7.5,16.5 -2.6,6 -4.8,11.7 -6.8,17.1 -1.3,3.6 -2.5,7 -3.6,10.3 -0.9,2.8 -1.7,5.7 -2.5,8.5 -1.9,6.6 -3.5,13.3 -4.9,19.9 L 88.4,287 c 1.7,-4.5 3.4,-9.1 5.2,-13.7 0.5,-1.2 1,-2.5 1.5,-3.8 z"
   fill="url(#SVGID_14_)" />
	
		<linearGradient
   gradientTransform="matrix(0.4226,-0.9063,0.9063,0.4226,4442.6831,-6372.6807)"
   y2="-1142.0658"
   x2="-7789.96"
   y1="-1142.0658"
   x1="-7970.6377"
   gradientUnits="userSpaceOnUse"
   id="SVGID_15_">
		<stop
   id="stop822"
   style="stop-color:#282662"
   offset="0" />
		<stop
   id="stop824"
   style="stop-color:#662E8D"
   offset="9.548390e-02" />
		<stop
   id="stop826"
   style="stop-color:#9F2064"
   offset="0.7882" />
		<stop
   id="stop828"
   style="stop-color:#CD2032"
   offset="0.9487" />
	</linearGradient>
	<path
   style="fill:url(#SVGID_15_)"
   id="path831"
   d="m 75.5,262.7 c -1.6,8.1 -2.7,16.1 -3.3,24.1 0,0.3 0,0.6 -0.1,0.8 -4,-6.4 -14.6,-12.6 -14.6,-12.5 7.6,11.1 13.4,22 14.3,32.8 -4.1,0.8 -9.7,-0.4 -16.1,-2.7 6.7,6.2 11.8,7.9 13.8,8.4 -6.2,0.4 -12.6,4.6 -19.1,9.5 9.5,-3.9 17.2,-5.4 22.7,-4.2 -8.7,24.7 -17.5,51.9 -26.2,80.9 2.7,-0.8 4.3,-2.6 5.2,-5 1.6,-5.2 11.9,-39.6 28.1,-84.8 0.5,-1.3 0.9,-2.6 1.4,-3.9 0.1,-0.4 0.3,-0.7 0.4,-1.1 1.7,-4.7 3.5,-9.6 5.3,-14.5 0.4,-1.1 0.8,-2.2 1.3,-3.4 0,0 0,0 0,-0.1 L 75.9,261.8 c -0.3,0.4 -0.3,0.7 -0.4,0.9 z"
   fill="url(#SVGID_15_)" />
	
		<linearGradient
   gradientTransform="matrix(0.4226,-0.9063,0.9063,0.4226,4442.6831,-6372.6807)"
   y2="-1111.135"
   x2="-7651.9102"
   y1="-1111.135"
   x1="-7995.7114"
   gradientUnits="userSpaceOnUse"
   id="SVGID_16_">
		<stop
   id="stop833"
   style="stop-color:#9E2064"
   offset="0.3233" />
		<stop
   id="stop835"
   style="stop-color:#C92037"
   offset="0.6302" />
		<stop
   id="stop837"
   style="stop-color:#CD2335"
   offset="0.7514" />
		<stop
   id="stop839"
   style="stop-color:#E97826"
   offset="1" />
	</linearGradient>
	<path
   style="fill:url(#SVGID_16_)"
   id="path842"
   d="m 141.9,169.2 c -0.4,0.7 -0.7,1.5 -1.1,2.3 -1.1,2.3 -2.2,4.6 -3.3,6.9 -1.2,2.6 -2.4,5.2 -3.7,7.9 -0.6,1.3 -1.3,2.7 -1.9,4.1 -1.9,4.1 -3.8,8.4 -5.8,12.8 -2.4,5.4 -4.8,11 -7.3,16.9 -2.4,5.6 -4.8,11.3 -7.2,17.3 -2.3,5.7 -4.6,11.5 -7,17.5 -2.1,5.4 -4.2,10.9 -6.4,16.5 -0.1,0.3 -0.2,0.5 -0.3,0.8 -2.1,5.6 -4.3,11.4 -6.4,17.3 0,0.1 -0.1,0.3 -0.1,0.4 l 10.3,-1.1 c -0.2,0 -0.4,-0.1 -0.6,-0.1 12.3,-1.5 28.6,-10.7 39.1,-22 4.9,-5.2 9.3,-11.4 13.3,-18.6 3,-5.4 5.9,-11.3 8.6,-17.9 2.4,-5.8 4.6,-12 6.8,-18.7 -2.8,1.5 -6,2.6 -9.6,3.3 -0.6,0.1 -1.3,0.3 -1.9,0.4 -0.6,0.1 -1.3,0.2 -2,0.3 v 0 0 c 0,0 0,0 0,0 11.4,-4.4 18.7,-12.9 23.9,-23.3 -3,2.1 -7.9,4.7 -13.8,6 -0.8,0.2 -1.6,0.3 -2.4,0.4 -0.2,0 -0.4,0.1 -0.6,0.1 v 0 0 c 0,0 0,0 0,0 0,0 0,0 0,0 v 0 c 4,-1.7 7.3,-3.5 10.2,-5.7 0.6,-0.5 1.2,-1 1.8,-1.5 0.9,-0.8 1.7,-1.6 2.5,-2.4 0.5,-0.5 1,-1.1 1.5,-1.7 1.1,-1.4 2.2,-2.8 3.2,-4.4 0.3,-0.5 0.6,-1 0.9,-1.5 0.4,-0.7 0.7,-1.5 1.1,-2.2 1.6,-3.2 2.9,-6.1 3.9,-8.6 0.5,-1.3 1,-2.4 1.3,-3.5 0.2,-0.4 0.3,-0.8 0.4,-1.3 0.4,-1.2 0.7,-2.3 1,-3.2 0.4,-1.4 0.6,-2.5 0.8,-3.3 v 0 0 c -0.4,0.3 -0.8,0.6 -1.3,0.9 -3.5,2.1 -9.4,3.9 -14.2,4.8 l 9.4,-1 -9.4,1 c -0.1,0 -0.1,0 -0.2,0 -0.5,0.1 -1,0.2 -1.4,0.2 0.1,0 0.2,-0.1 0.2,-0.1 l -32.2,3.5 c 0,0.3 -0.1,0.4 -0.1,0.5 z"
   fill="url(#SVGID_16_)" />
	
		<linearGradient
   gradientTransform="matrix(0.4226,-0.9063,0.9063,0.4226,4442.6831,-6372.6807)"
   y2="-1112.902"
   x2="-7673.2373"
   y1="-1112.902"
   x1="-8017.0386"
   gradientUnits="userSpaceOnUse"
   id="SVGID_17_">
		<stop
   id="stop844"
   style="stop-color:#9E2064"
   offset="0.3233" />
		<stop
   id="stop846"
   style="stop-color:#C92037"
   offset="0.6302" />
		<stop
   id="stop848"
   style="stop-color:#CD2335"
   offset="0.7514" />
		<stop
   id="stop850"
   style="stop-color:#E97826"
   offset="1" />
	</linearGradient>
	<path
   style="fill:url(#SVGID_17_)"
   id="path853"
   d="m 178.1,104 c -2.9,4.4 -6,9.4 -9.4,15.1 -0.2,0.3 -0.4,0.6 -0.5,0.9 -2.9,4.9 -6,10.3 -9.2,16.2 -2.8,5.1 -5.7,10.5 -8.8,16.4 -2.6,5.1 -5.4,10.5 -8.2,16.3 l 32.2,-3.5 c 9.4,-4.3 13.6,-8.2 17.7,-13.9 1.1,-1.6 2.2,-3.2 3.3,-4.9 3.3,-5.2 6.6,-10.9 9.5,-16.5 2.8,-5.5 5.3,-10.9 7.2,-15.8 1.2,-3.1 2.2,-6 2.8,-8.5 0.6,-2.2 1,-4.4 1.4,-6.4 -12.6,2.1 -28,4.1 -38,4.6 z"
   fill="url(#SVGID_17_)" />
	<path
   id="path855"
   d="m 157.3,215.1 c -0.6,0.1 -1.3,0.2 -2,0.3 v 0 c 0.7,0 1.4,-0.1 2,-0.3 z"
   fill="#be202e" />
	<path
   id="path857"
   d="m 157.3,215.1 c -0.6,0.1 -1.3,0.2 -2,0.3 v 0 c 0.7,0 1.4,-0.1 2,-0.3 z"
   fill="#be202e"
   opacity="0.35" />
	
		<linearGradient
   gradientTransform="matrix(0.4226,-0.9063,0.9063,0.4226,4442.6831,-6372.6807)"
   y2="-1100.5521"
   x2="-7651.9102"
   y1="-1100.5521"
   x1="-7995.7114"
   gradientUnits="userSpaceOnUse"
   id="SVGID_18_">
		<stop
   id="stop859"
   style="stop-color:#9E2064"
   offset="0.3233" />
		<stop
   id="stop861"
   style="stop-color:#C92037"
   offset="0.6302" />
		<stop
   id="stop863"
   style="stop-color:#CD2335"
   offset="0.7514" />
		<stop
   id="stop865"
   style="stop-color:#E97826"
   offset="1" />
	</linearGradient>
	<path
   style="fill:url(#SVGID_18_)"
   id="path868"
   d="m 157.3,215.1 c -0.6,0.1 -1.3,0.2 -2,0.3 v 0 c 0.7,0 1.4,-0.1 2,-0.3 z"
   fill="url(#SVGID_18_)" />
	<path
   id="path870"
   d="m 162.5,198.7 c 0.2,0 0.4,-0.1 0.6,-0.1 -0.2,0 -0.4,0.1 -0.6,0.1 z"
   fill="#be202e" />
	<path
   id="path872"
   d="m 162.5,198.7 c 0.2,0 0.4,-0.1 0.6,-0.1 -0.2,0 -0.4,0.1 -0.6,0.1 z"
   fill="#be202e"
   opacity="0.35" />
	
		<linearGradient
   gradientTransform="matrix(0.4226,-0.9063,0.9063,0.4226,4442.6831,-6372.6807)"
   y2="-1101.7631"
   x2="-7651.9102"
   y1="-1101.7631"
   x1="-7995.7114"
   gradientUnits="userSpaceOnUse"
   id="SVGID_19_">
		<stop
   id="stop874"
   style="stop-color:#9E2064"
   offset="0.3233" />
		<stop
   id="stop876"
   style="stop-color:#C92037"
   offset="0.6302" />
		<stop
   id="stop878"
   style="stop-color:#CD2335"
   offset="0.7514" />
		<stop
   id="stop880"
   style="stop-color:#E97826"
   offset="1" />
	</linearGradient>
	<path
   style="fill:url(#SVGID_19_)"
   id="path883"
   d="m 162.5,198.7 c 0.2,0 0.4,-0.1 0.6,-0.1 -0.2,0 -0.4,0.1 -0.6,0.1 z"
   fill="url(#SVGID_19_)" />
	<polygon
   id="polygon885"
   points=""
   fill="#be202e" />
	<polygon
   id="polygon887"
   points=""
   fill="#be202e"
   opacity="0.35" />
	
		<linearGradient
   gradientTransform="matrix(0.4226,-0.9063,0.9063,0.4226,4442.6831,-6372.6807)"
   y2="-1102.006"
   x2="-7726.5776"
   y1="-1102.006"
   x1="-7802.5688"
   gradientUnits="userSpaceOnUse"
   id="SVGID_20_">
		<stop
   id="stop889"
   style="stop-color:#9E2064"
   offset="0.3233" />
		<stop
   id="stop891"
   style="stop-color:#C92037"
   offset="0.6302" />
		<stop
   id="stop893"
   style="stop-color:#CD2335"
   offset="0.7514" />
		<stop
   id="stop895"
   style="stop-color:#E97826"
   offset="1" />
	</linearGradient>
	<polygon
   style="fill:url(#SVGID_20_)"
   id="polygon898"
   points=""
   fill="url(#SVGID_20_)" />
</g>
<g
   transform="matrix(1.0699318,0,0,1.0699318,-29.423746,-39.077896)"
   id="g908">
	<g
   id="g906">
		<path
   id="path902"
   d="m 870.1,161.4 v 8.3 h -2.3 v -8.3 h -2.9 v -2 h 8.2 v 2 z"
   fill="#b0afb0" />
		<path
   id="path904"
   d="m 884,163.2 -2.8,5.6 h -1.4 l -2.8,-5.6 v 6.5 h -2.3 v -10.3 h 3.1 l 2.7,5.7 2.7,-5.7 h 3.1 v 10.3 H 884 Z"
   fill="#b0afb0" />
	</g>
</g>
</svg>
