<?xml version="1.0" encoding="UTF-8" standalone="no"?>
<svg
   xmlns:dc="http://purl.org/dc/elements/1.1/"
   xmlns:cc="http://creativecommons.org/ns#"
   xmlns:rdf="http://www.w3.org/1999/02/22-rdf-syntax-ns#"
   xmlns:svg="http://www.w3.org/2000/svg"
   xmlns="http://www.w3.org/2000/svg"
   xmlns:sodipodi="http://sodipodi.sourceforge.net/DTD/sodipodi-0.dtd"
   xmlns:inkscape="http://www.inkscape.org/namespaces/inkscape"
   inkscape:version="1.0 (6e3e5246a0, 2020-05-07)"
   inkscape:export-ydpi="7.6799998"
   inkscape:export-xdpi="7.6799998"
   inkscape:export-filename="sonatype.png"
   sodipodi:docname="sonatype.svg"
   id="svg934"
   version="1.1"
   height="436"
   width="2500"
   viewBox="4 10.469999999999986 1514.7181913599102 273.97">
  <metadata
     id="metadata940">
    <rdf:RDF>
      <cc:Work
         rdf:about="">
        <dc:format>image/svg+xml</dc:format>
        <dc:type
           rdf:resource="http://purl.org/dc/dcmitype/StillImage" />
      </cc:Work>
    </rdf:RDF>
  </metadata>
  <defs
     id="defs938" />
  <sodipodi:namedview
     inkscape:current-layer="svg934"
     inkscape:window-maximized="1"
     inkscape:window-y="25"
     inkscape:window-x="56"
     inkscape:cy="298.58018"
     inkscape:cx="1250"
     inkscape:zoom="0.4964"
     showgrid="false"
     id="namedview936"
     inkscape:window-height="1108"
     inkscape:window-width="1864"
     inkscape:pageshadow="2"
     inkscape:pageopacity="0"
     guidetolerance="10"
     gridtolerance="10"
     objecttolerance="10"
     borderopacity="1"
     bordercolor="#666666"
     pagecolor="#ffffff" />
  <linearGradient
     gradientTransform="translate(2.2837155,-9.6353689)"
     y2="230.25"
     y1="85.19"
     x2="217.58"
     x1="10.42"
     gradientUnits="userSpaceOnUse"
     id="a">
    <stop
       id="stop917"
       stop-color="#6d3dec"
       offset="0" />
    <stop
       id="stop919"
       stop-color="#4ba8e9"
       offset=".87" />
  </linearGradient>
  <path
     id="path922"
     fill="#1b1c30"
     d="m 1040.2835,282.36458 c -1.9,-1.93 -4.52,-1.55 -6.83,-1.89 -2.52,-0.37 -3.48,-1.13 -3,-3.82 1.42,-7.52 2.75,-15.05 3.85,-22.62 0.44,-3.05 1.6,-3.19 4.22,-2.38 a 31,31 0 0 0 15.28,0.85 c 5.59,-1.08 9.93,-3.81 12.79,-8.66 6.7,-11.38 9.82,-21.91 3.69,-35.94 -19,-43.5 -36.12,-87.84999 -54,-131.879949 -0.37,-0.9 -0.66,-1.83 -1.27,-3.51 h 26.48 c 8.08,0 8.08,0 11,7.62 l 40,102.619949 c 1.49,-0.18 1.38,-1.52 1.75,-2.48 13.34,-34.2 26.73,-68.36998 39.9,-102.629949 1.55,-4 3.42,-5.48 7.87,-5.27 9.47,0.45 19,0.14 29.21,0.14 -3.18,7.93 -6.17,15.55 -9.28,23.13 -20.52,50.109949 -41.3,100.109949 -61.47,150.349949 -8.25,20.55 -21.76,33.42 -44.39,35.44 -0.34,0 -0.63,0.61 -1,0.93 h -4 a 10.27,10.27 0 0 0 -7,0 z" />
  <path
     id="path924"
     fill="#666774"
     d="m 1503.3835,157.50458 c 0.36,-4 -1.25,-8.23 0.9,-12.14 v 12 z" />
  <path
     id="path926"
     fill="#8f8f99"
     d="m 1044.2835,282.36458 a 5.66,5.66 0 0 1 7,0 z" />
  <g
     transform="translate(6.2837155,21.364632)"
     id="g930"
     fill="#1b1c30">
    <path
       id="path928"
       d="m 622.84,71.12 c 10.42,-11 22,-18.09 35.73,-21.5 a 66.32,66.32 0 0 1 36.92,0.88 c 16.3,5.25 27,18.79 27.29,37.33 0.65,36.47 0.26,73 0.37,109.46 0,2.2 -0.66,2.82 -2.83,2.79 -8.83,-0.1 -17.66,-0.21 -26.49,0 -3.63,0.1 -3,-2 -3,-4.13 V 108.48 A 71.62,71.62 0 0 0 689.96,97.54 C 688.11,85.85 680.51,78.61 668.81,76.89 651.32,74.32 637.22,80.63 625.36,93.1 a 9.57,9.57 0 0 0 -2.54,7.22 c 0.08,31.66 0,63.31 0.16,95 0,4.08 -1.22,4.93 -5,4.79 -8,-0.27 -16,-0.17 -24,0 -2.6,0 -3.8,-0.36 -3.79,-3.45 q 0.15,-71 0,-141.95 c 0,-2.92 0.92,-3.66 3.71,-3.6 8.33,0.16 16.67,0.24 25,0 3.53,-0.11 4.15,1.22 4,4.33 -0.23,4.85 -0.06,9.77 -0.06,15.68 z M 377.35,91.36 a 57.46,57.46 0 0 0 -33,-16.79 c -8.91,-1.42 -17.89,-1.65 -26.67,1.3 a 20.11,20.11 0 0 0 -8.45,5.1 c -5.8,6.1 -4.68,14.92 2.7,19.68 7.38,4.76 16,6.44 24.38,8.38 10.36,2.4 20.78,4.53 30.69,8.57 17.88,7.28 28.67,19.81 28.51,39.76 -0.16,19.45 -10.05,33.41 -27.84,39.94 -33.49,12.29 -65.34,8.36 -94.45,-13.22 -3.24,-2.4 -3.47,-4.3 -1.14,-7.6 4.3,-6.11 8.09,-12.59 12.33,-19.28 a 77.7,77.7 0 0 0 29.78,17.39 c 11.8,3.77 23.76,5 35.86,1.52 a 26.25,26.25 0 0 0 6.37,-2.74 c 10.16,-6.2 10.51,-18.87 0.66,-25.54 C 349.68,142.78 341,141 332.4,139 c -10.86,-2.48 -21.78,-4.65 -32.11,-9 -15.37,-6.49 -25.27,-17.26 -26,-34.55 -0.73,-17.29 7.05,-30.08 21.63,-38.92 11.17,-6.78 23.61,-9 36.37,-9 20.37,-0.06 39.06,5.38 55.36,18.13 2.87,2.24 3.11,3.78 1.19,6.72 -3.96,6.06 -7.55,12.41 -11.49,18.98 z m 615.75,78.76 c 2.36,7.51 4.66,14.94 7,22.33 0.91,2.78 -1.34,3.52 -2.87,4.53 -10,6.54 -21.22,7.74 -32.64,6.56 -21.75,-2.24 -32.6,-14.63 -32.73,-37 q -0.23,-40.74 0.06,-81.5 c 0,-4 -0.62,-5.61 -5,-5.26 -5.46,0.45 -11,0 -16.49,0.16 -2.58,0.08 -3.49,-0.65 -3.42,-3.35 0.17,-7.32 0.21,-14.67 0,-22 -0.09,-3.11 1.2,-3.54 3.82,-3.47 5.83,0.15 11.67,-0.1 17.5,0.11 2.83,0.1 3.65,-0.75 3.6,-3.6 -0.16,-10.83 0.15,-21.67 -0.17,-32.49 -0.12,-3.95 1.16,-4.67 4.75,-4.55 7.82,0.28 15.67,0.26 23.49,0 3.43,-0.11 4.56,0.72 4.48,4.33 -0.25,10.66 0.07,21.34 -0.18,32 -0.09,3.64 1.11,4.43 4.49,4.31 7.16,-0.24 14.33,0.06 21.49,-0.14 3.07,-0.08 4.48,0.46 4.34,4 -0.29,7 -0.25,14 0,21 0.11,3.15 -0.91,4 -4,3.86 -7.32,-0.22 -14.67,0.13 -22,-0.16 -3.59,-0.14 -4.36,1 -4.34,4.46 0.15,23.5 0.09,47 0.07,70.5 0,7.14 0.13,14.43 7.32,18.43 7.5,4.13 14.45,1.22 21.43,-3.06 z M 1498,118 c -2,-2.48 -1.43,-5.58 -2,-8.39 -8.72,-46.53 -46.36,-69.19 -89,-60.17 -35.3,7.45 -58.88,39.23 -58.2,77 0.57,31.81 13.66,56.25 43.08,70.16 18.42,8.71 37.94,9 57.63,4.8 a 80,80 0 0 0 35.18,-16.77 c 2,-1.71 2.4,-2.91 0.69,-5.2 -4.45,-6 -8.59,-12.19 -13,-18.53 a 61.4,61.4 0 0 1 -34,15.67 c -28,3.84 -49.49,-10.94 -54.85,-35.38 -0.8,-3.68 -0.35,-4.83 3.78,-4.81 35,0.16 70,0.1 104.93,0.08 1.64,0 3.28,-0.2 4.92,-0.3 1.18,-4 -0.49,-8.18 0.9,-12.14 z m -35.73,-4.5 c -12.65,-0.19 -25.3,-0.08 -38,-0.08 -12.7,0 -25.31,-0.11 -38,0.07 -3.17,0 -3.87,-0.72 -3.46,-3.89 2.67,-20.6 20.17,-35.65 41.59,-35.52 22.11,0.13 38.72,14.47 41.34,35.5 0.49,3.14 -0.29,3.96 -3.47,3.92 z M 1320.41,88.9 c -17.63,-48.57 -78.71,-53.67 -105.66,-19.68 -0.4,0.5 -0.85,1 -1.68,0.49 0,-4.78 -0.21,-9.62 0.07,-14.43 0.18,-3.24 -0.72,-4.32 -4.09,-4.21 -7.82,0.25 -15.67,0.32 -23.49,0 -4.14,-0.18 -5.22,1 -5.21,5.17 q 0.23,82.71 0.1,165.43 c 0,10.5 0.12,21 -0.07,31.49 -0.06,3.13 0.9,3.94 3.95,3.86 8.32,-0.21 16.66,-0.23 25,0 3.19,0.09 3.87,-0.94 3.83,-3.94 -0.17,-11.66 -0.07,-23.32 -0.07,-35 v -37.74 c 1.18,1.12 1.59,1.42 1.9,1.8 26.76,33.88 85.69,28.3 104.12,-16.74 10.31,-25.22 10.56,-50.99 1.3,-76.5 z M 1289,148.15 c -8,21.49 -29.1,31.72 -50.9,24.75 a 52.34,52.34 0 0 1 -13,-6.24 c -8,-5.28 -14.05,-11.28 -12.24,-22.32 1,-6.17 0.18,-12.63 0.18,-19 0,-8.33 0.15,-16.66 -0.08,-25 a 10.23,10.23 0 0 1 3.07,-8 c 13.16,-13.24 28.7,-19.53 47.11,-14.14 17.88,5.23 25.87,19.13 28.9,36.55 a 63.21,63.21 0 0 1 -3.04,33.4 z M 488.15,47.4 c -44.69,0.14 -76.58,32.88 -76.41,78.44 0.17,46.19 32,78.12 77.77,78 44.34,-0.12 75.55,-33.14 75.45,-79.86 C 564.87,79.86 532.18,47.27 488.15,47.4 Z m 43,75.6 c -0.21,17.6 -4.09,31 -15,41.32 -20.65,19.52 -54.49,11.9 -65.91,-14.84 -6.42,-15 -6.57,-30.49 -0.82,-45.76 6.63,-17.58 21.69,-27.84 39.49,-27.45 18.22,0.39 32.8,11.22 39,29 2.23,6.73 3.52,13.53 3.25,17.73 z M 883.74,101.39 C 883.48,72.69 869.53,55.68 841.63,49.45 a 95.42,95.42 0 0 0 -30.81,-1.38 c -18.55,1.93 -35.06,8.76 -49.15,21.11 -1.27,1.11 -3.18,1.89 -1.65,4.36 4.18,6.76 8.15,13.66 12.32,20.7 14.61,-14.07 31.49,-20.64 51.58,-18.32 15.15,1.75 26.51,11.8 27,24.72 0.32,7.61 0.06,15.26 0.06,23.7 -17.09,-16.3 -37,-20.65 -58.74,-17.23 -17.11,2.7 -30.56,11.24 -37.36,27.94 -13.62,33.43 10,68.19 46.64,68.77 18.66,0.29 35.35,-4.95 49.5,-19.18 0,4.67 0.19,8.43 -0.06,12.16 -0.18,2.75 0.86,3.33 3.37,3.29 8.67,-0.13 17.34,-0.18 26,0 3,0.07 3.5,-1.07 3.49,-3.73 -0.04,-31.65 0.18,-63.31 -0.08,-94.97 z m -47.89,76.24 c -9.79,4 -20,5.1 -30.31,2.52 -13.21,-3.28 -21.28,-12.67 -21.48,-24.73 -0.21,-12.24 7.72,-22.21 21.06,-25.58 13.56,-3.41 26.44,-1.15 38.19,6.45 7.46,4.83 7.75,6 7.75,18.66 0,13.48 -2.58,17.55 -15.21,22.68 z" />
  </g>
  <path
     style="fill:url(#a)"
     id="path932"
     fill="url(#a)"
     d="M 6.2837155,211.44458 V 84.724631 q 23.5499995,-13.73 47.0999995,-27.44 31,-18 61.999985,-35.919999 h 1.76 q 28.73,16.639999 57.45,33.279999 25.85,15 51.67,30.08 V 211.44458 c -2,1.26 -3.89,2.61 -5.91,3.78 q -51.6,29.8 -103.21,59.58 h -1.76 q -21.659985,-12.6 -43.319985,-25.21 -32.86,-19.09 -65.7799995,-38.15 z m 187.9999845,-63.08 c 0,-13.63 -0.09,-27.26 0.06,-40.88996 0,-3.21 -1.12,-5.05999 -3.88,-6.63999 q -35.3,-20.179999 -70.45,-40.599999 a 6.38,6.38 0 0 0 -7.28,0 q -34.949985,20.34 -69.999985,40.419999 c -3.21,1.83 -4.46,3.99999 -4.44,7.66998 q 0.2,39.57997 0,79.14997 c 0,4 1.21,6.38 4.75,8.39 q 34.79,19.74 69.339985,39.9 c 2.89,1.68 5.15,1.75 8.07,0.05 q 34.83,-20.35 69.99,-40.4 c 3,-1.7 4,-3.75 3.92,-7.06 -0.15,-13.34 -0.08,-26.68 -0.08,-39.99 z" />
</svg>
